<svg width="483" height="126" viewBox="0 0 483 126" fill="none" xmlns="http://www.w3.org/2000/svg">
<path fill-rule="evenodd" clip-rule="evenodd" d="M69.3737 38.236C72.2764 34.5223 75.5051 30.3916 79.3572 27.6801C88.2416 21.4283 95.1947 25.2464 102.319 29.1587C108.309 32.4483 114.421 35.8044 121.904 33.2959C110.937 49.0982 98.3881 52.2116 84.2348 45.5087C79.0598 43.0618 74.5417 44.0646 70.3781 46.6976L45.0393 72.417L72.2952 111.408H56.7465L35.7101 81.0518L29.0334 87.777H15.7712V80.8467H24.9159C27.5534 80.8467 30.0842 79.8046 31.9571 77.9474L42.9459 67.0508C42.8852 67.111 43.5445 66.4572 43.5 66.5001L43.5445 66.4572L55.3722 54.7285C67.789 41.2493 80.3577 30.0595 102.531 36.3336C91.2157 31.1544 80.0061 31.9891 68.903 38.8378C69.059 38.6387 69.2159 38.4379 69.3737 38.236Z" fill="#ED078F"/>
<path d="M52.1564 25.7683C52.5409 28.5782 54.6196 31.2441 57.7307 32.0151C66.2586 34.1333 68.0813 23.5117 65.0633 16.5695C69.0352 23.3412 68.1018 30.4742 62.2632 37.9684C75.7724 24.8259 72.5906 9.96808 56.5921 0C61.7884 12.1117 50.801 15.7847 52.1564 25.7683Z" fill="#00B800"/>
<path fill-rule="evenodd" clip-rule="evenodd" d="M102.608 103.456C102.954 105.961 103.414 107.583 103.989 108.323H115.289V107.896C114.254 107.156 113.737 105.135 113.737 101.833V79.5455C113.737 68.7862 107.525 63.4067 95.1036 63.4067C89.0083 63.4067 84.3501 64.7729 81.1295 67.5057C77.9091 70.238 76.2126 73.6822 76.0401 77.8376H86.4775C86.8226 73.7392 89.6692 71.6897 95.0178 71.6897C97.4327 71.6897 99.2732 72.1734 100.539 73.1414C101.803 74.0524 102.436 75.3044 102.436 76.8988C102.436 78.4354 101.689 79.5176 100.193 80.1433C98.6981 80.7126 95.8804 81.2818 91.7396 81.8511C86.1041 82.6486 81.7334 84.0997 78.628 86.2063C75.5225 88.2558 73.9698 91.5003 73.9698 95.9411C73.9698 100.211 75.3788 103.512 78.1966 105.846C81.0145 108.181 84.7522 109.348 89.4105 109.348C92.9186 109.348 95.6505 108.835 97.6056 107.81C99.5607 106.786 101.171 105.334 102.436 103.456H102.608ZM99.8483 98.759C98.0078 100.41 95.4776 101.235 92.257 101.235C87.6564 101.235 85.3561 99.3853 85.3561 95.685C85.3561 93.7496 86.0465 92.3264 87.4265 91.4154C88.8066 90.4474 91.1645 89.5934 94.5003 88.8536C98.6981 87.8856 101.429 87.0317 102.695 86.2919V92.8671C102.695 95.1442 101.746 97.1082 99.8483 98.759ZM137.756 109.604C132.179 109.604 127.664 107.526 124.213 103.37C120.763 99.1577 119.038 93.5213 119.038 86.4624C119.038 79.6311 120.792 74.0809 124.3 69.8113C127.866 65.4845 132.409 63.3213 137.929 63.3213C143.45 63.3213 147.619 65.4845 150.437 69.8113H150.696V47.2675H162.428V108.323H151.127V102.601H150.955C148.08 107.27 143.68 109.604 137.756 109.604ZM140.344 99.869C143.795 99.869 146.411 98.7019 148.194 96.3677C150.035 94.0342 150.955 90.8176 150.955 86.7185C150.955 77.3825 147.533 72.7141 140.69 72.7141C137.527 72.7141 135.112 73.9668 133.443 76.4715C131.776 78.9762 130.942 82.3069 130.942 86.4624C130.942 90.732 131.747 94.0342 133.358 96.3677C135.025 98.7019 137.354 99.869 140.344 99.869ZM174.021 103.114C178.105 107.441 183.712 109.604 190.843 109.604C196.306 109.604 200.791 108.238 204.299 105.505C207.807 102.772 209.992 99.3568 210.855 95.2577H199.296C197.916 98.8445 195.069 100.637 190.756 100.637C187.478 100.637 184.89 99.6985 182.993 97.8195C181.095 95.884 179.916 93.1803 179.456 89.7076H211.545C211.545 81.6806 209.647 75.2759 205.852 70.4941C202.057 65.7123 196.68 63.3213 189.721 63.3213C183.338 63.3213 178.105 65.5415 174.021 69.9818C169.938 74.3655 167.897 79.8301 167.897 86.3768C167.897 93.1518 169.938 98.7304 174.021 103.114ZM179.629 81.6806C180.779 75.4185 184.201 72.2875 189.894 72.2875C192.539 72.2875 194.724 73.1699 196.449 74.9348C198.175 76.6427 199.124 78.8912 199.296 81.6806H179.629ZM228.448 70.4941H228.707C231.754 65.7123 236.125 63.3213 241.818 63.3213C246.361 63.3213 250.042 64.8583 252.86 67.9323C255.678 70.9499 257.086 74.8778 257.086 79.7166V108.323H245.355V81.4245C245.355 79.0333 244.665 77.0978 243.285 75.6176C241.962 74.1373 240.093 73.3975 237.678 73.3975C235.09 73.3975 232.933 74.337 231.208 76.2154C229.541 78.0944 228.707 80.5135 228.707 83.474V108.323H216.975V64.5168H228.448V70.4941ZM290.8 103.456C291.145 105.961 291.605 107.583 292.18 108.323H303.481V107.896C302.445 107.156 301.928 105.135 301.928 101.833V79.5455C301.928 68.7862 295.717 63.4067 283.295 63.4067C277.199 63.4067 272.541 64.7729 269.321 67.5057C266.101 70.238 264.404 73.6822 264.231 77.8376H274.669C275.014 73.7392 277.861 71.6897 283.209 71.6897C285.624 71.6897 287.464 72.1734 288.73 73.1414C289.995 74.0524 290.627 75.3044 290.627 76.8988C290.627 78.4354 289.88 79.5176 288.385 80.1433C286.889 80.7126 284.071 81.2818 279.931 81.8511C274.295 82.6486 269.924 84.0997 266.819 86.2063C263.714 88.2558 262.161 91.5003 262.161 95.9411C262.161 100.211 263.57 103.512 266.388 105.846C269.206 108.181 272.944 109.348 277.602 109.348C281.11 109.348 283.842 108.835 285.797 107.81C287.752 106.786 289.362 105.334 290.627 103.456H290.8ZM288.039 98.759C286.199 100.41 283.669 101.235 280.449 101.235C275.848 101.235 273.548 99.3853 273.548 95.685C273.548 93.7496 274.238 92.3264 275.618 91.4154C276.998 90.4474 279.356 89.5934 282.691 88.8536C286.889 87.8856 289.621 87.0317 290.887 86.2919V92.8671C290.887 95.1442 289.937 97.1082 288.039 98.759Z" fill="#ED078F"/>
<path fill-rule="evenodd" clip-rule="evenodd" d="M17.2288 111H17H3.01613C1.08172 111 -0.347042 109.196 0.0958025 107.313L10.363 63.6556C4.27199 61.0702 0 55.034 0 48C0 38.6112 7.61116 31 17 31C26.3888 31 34 38.6112 34 48C34 54.9538 29.8249 60.9324 23.8447 63.5659L34.133 107.313C34.5758 109.196 33.147 111 31.2126 111H17.2288Z" fill="#ED078F"/>
<path d="M309 108.585V48H321.809V74.7128H322.608L344.41 48H359.763L337.281 75.127L360.03 108.585H344.706L328.11 83.6763L321.809 91.3677V108.585H309Z" fill="#6028A4"/>
<path d="M378.991 109.472C374.317 109.472 370.294 108.525 366.922 106.632C363.569 104.719 360.985 102.017 359.171 98.5266C357.357 95.0162 356.45 90.8648 356.45 86.0725C356.45 81.3984 357.357 77.2964 359.171 73.7662C360.985 70.236 363.539 67.4849 366.833 65.5127C370.146 63.5406 374.031 62.5545 378.488 62.5545C381.486 62.5545 384.277 63.0377 386.86 64.004C389.463 64.9507 391.731 66.3805 393.664 68.2935C395.617 70.2065 397.135 72.6125 398.22 75.5116C399.304 78.3909 399.847 81.7633 399.847 85.6287V89.0899H361.479V81.2801H387.984C387.984 79.4657 387.59 77.8584 386.801 76.4582C386.012 75.058 384.918 73.9634 383.517 73.1746C382.137 72.366 380.53 71.9617 378.695 71.9617C376.782 71.9617 375.086 72.4054 373.607 73.2929C372.148 74.1606 371.004 75.3341 370.176 76.8132C369.347 78.2726 368.923 79.8996 368.904 81.6943V89.1194C368.904 91.3677 369.318 93.3103 370.146 94.9472C370.994 96.5841 372.187 97.8462 373.726 98.7337C375.264 99.6212 377.088 100.065 379.198 100.065C380.599 100.065 381.88 99.8677 383.044 99.4733C384.208 99.0788 385.204 98.4872 386.032 97.6983C386.86 96.9095 387.491 95.9431 387.925 94.7993L399.581 95.5684C398.989 98.3689 397.776 100.814 395.942 102.905C394.128 104.976 391.781 106.593 388.901 107.756C386.042 108.9 382.738 109.472 378.991 109.472Z" fill="#6028A4"/>
<path d="M410.02 125.624C408.422 125.624 406.923 125.496 405.523 125.239C404.143 125.003 402.999 124.697 402.092 124.322L404.931 114.915C406.411 115.369 407.742 115.615 408.925 115.655C410.128 115.694 411.163 115.418 412.031 114.826C412.919 114.235 413.638 113.229 414.191 111.809L414.93 109.886L398.63 63.1461H411.883L421.29 96.515H421.764L431.26 63.1461H444.601L426.941 113.495C426.093 115.941 424.939 118.071 423.48 119.885C422.04 121.719 420.216 123.129 418.007 124.115C415.798 125.121 413.136 125.624 410.02 125.624Z" fill="#6028A4"/>
<path d="M481.776 76.1032L470.239 76.8132C470.041 75.8271 469.617 74.9396 468.967 74.1508C468.316 73.3422 467.458 72.7012 466.393 72.2279C465.348 71.7349 464.095 71.4884 462.636 71.4884C460.684 71.4884 459.037 71.9025 457.696 72.7308C456.355 73.5394 455.684 74.6241 455.684 75.9849C455.684 77.0696 456.118 77.9866 456.986 78.736C457.853 79.4855 459.342 80.087 461.453 80.5406L469.677 82.1972C474.094 83.1044 477.388 84.5638 479.557 86.5754C481.726 88.587 482.811 91.2296 482.811 94.5034C482.811 97.4814 481.933 100.094 480.178 102.343C478.443 104.591 476.056 106.346 473.019 107.608C470.002 108.851 466.521 109.472 462.577 109.472C456.562 109.472 451.769 108.22 448.2 105.715C444.65 103.191 442.569 99.7592 441.958 95.4205L454.353 94.7697C454.728 96.6038 455.635 98.004 457.074 98.9704C458.514 99.917 460.358 100.39 462.606 100.39C464.815 100.39 466.59 99.9663 467.931 99.1183C469.292 98.2505 469.982 97.1363 470.002 95.7755C469.982 94.6316 469.499 93.6948 468.552 92.9651C467.606 92.2157 466.146 91.6438 464.174 91.2494L456.305 89.6815C451.868 88.794 448.565 87.2558 446.395 85.0667C444.246 82.8776 443.171 80.087 443.171 76.6949C443.171 73.7761 443.96 71.2616 445.537 69.1514C447.135 67.0411 449.373 65.4141 452.253 64.2703C455.152 63.1264 458.544 62.5545 462.429 62.5545C468.168 62.5545 472.684 63.7674 475.978 66.1931C479.291 68.6189 481.224 71.9222 481.776 76.1032Z" fill="#6028A4"/>
</svg>
