<svg width="45" height="45" viewBox="0 0 45 45" fill="none" xmlns="http://www.w3.org/2000/svg">
<rect width="45" height="45" fill="white"/>
<path fill-rule="evenodd" clip-rule="evenodd" d="M25.5307 17.0714C26.5989 15.7047 27.7871 14.1846 29.2047 13.1867C32.4744 10.8859 35.0332 12.2911 37.655 13.7308C39.8595 14.9415 42.1087 16.1766 44.8627 15.2534C40.8266 21.0689 36.2084 22.2147 30.9998 19.7479C29.0953 18.8474 27.4326 19.2165 25.9003 20.1854L16.5752 29.6506L26.6058 44H20.8837L13.1419 32.8283L10.6848 35.3034H5.80408V32.7529H8.58792C9.93111 32.7529 11.2199 32.2222 12.1737 31.2764L15.8048 27.6758C15.7824 27.6979 16.0251 27.4573 16.0087 27.4731L16.0251 27.4573L20.3779 23.1409C24.9475 18.1804 29.573 14.0624 37.733 16.3713C33.5689 14.4653 29.4436 14.7725 25.3574 17.2929C25.4148 17.2196 25.4726 17.1458 25.5307 17.0714Z" fill="#ED078F"/>
<path d="M19.1944 12.4832C19.3359 13.5172 20.1009 14.4983 21.2458 14.7821C24.3842 15.5616 25.055 11.6527 23.9443 9.09783C25.406 11.59 25.0625 14.215 22.9138 16.973C27.8854 12.1363 26.7145 6.66842 20.8268 3C22.7391 7.45731 18.6956 8.80903 19.1944 12.4832Z" fill="#00B800"/>
<path fill-rule="evenodd" clip-rule="evenodd" d="M6.34045 43.8498H6.25627H1.64487C0.659776 43.8498 -0.0678191 42.9312 0.157699 41.9723L3.81374 26.4263C1.57216 25.4748 0 23.2534 0 20.6648C0 17.2095 2.80103 14.4085 6.25628 14.4085C9.71152 14.4085 12.5126 17.2095 12.5126 20.6648C12.5126 23.2239 10.976 25.4241 8.77521 26.3933L12.439 41.9723C12.6645 42.9312 11.9369 43.8498 10.9518 43.8498H6.34045Z" fill="#ED078F"/>
</svg>
